
<svg xmlns="http://www.w3.org/2000/svg" xmlns:xlink="http://www.w3.org/1999/xlink" width="453pt" height="394pt" viewBox="0 0 453 394" version="1.1">
<g id="surface1">
<path style="fill:none;stroke-width:57.4847;stroke-linecap:butt;stroke-linejoin:miter;stroke:rgb(0%,68.199158%,93.699646%);stroke-opacity:1;stroke-miterlimit:2.6131;" d="M -1173.476737 1250.650893 L -1172.85319 2461.404057 L -3891.830472 2463.08767 L -3892.415048 4480.096021 " transform="matrix(0,0.100233,0.0997668,0,0,394)"/>
<path style="fill:none;stroke-width:57.3507;stroke-linecap:butt;stroke-linejoin:miter;stroke:rgb(0%,68.199158%,93.699646%);stroke-opacity:1;stroke-miterlimit:2.6131;" d="M 1378.476563 1013.515625 C 1781.679688 1013.320313 2184.921875 1013.164063 2588.125 1012.96875 C 2588.59375 1921.523438 2589.101563 2830.039063 2589.570313 3738.59375 C 3172.890625 3738.75 3756.210938 3738.90625 4339.53125 3739.101563 " transform="matrix(0.1,0,0,-0.1,0,394)"/>
<path style="fill:none;stroke-width:57.3507;stroke-linecap:butt;stroke-linejoin:miter;stroke:rgb(0%,68.199158%,93.699646%);stroke-opacity:1;stroke-miterlimit:2.6131;" d="M 1509.140625 850.820313 C 1912.96875 850.664063 2316.796875 850.507813 2720.585938 850.351563 C 2721.015625 1758.984375 2721.40625 2667.617188 2721.796875 3576.25 C 3217.695313 3576.40625 3713.554688 3576.523438 4209.453125 3576.679688 " transform="matrix(0.1,0,0,-0.1,0,394)"/>
<path style="fill:none;stroke-width:57.3507;stroke-linecap:butt;stroke-linejoin:miter;stroke:rgb(0%,68.199158%,93.699646%);stroke-opacity:1;stroke-miterlimit:2.6131;" d="M 1639.882813 688.125 C 2044.296875 688.007813 2448.671875 687.890625 2853.085938 687.773438 C 2853.398438 1596.484375 2853.710938 2505.195313 2854.023438 3413.90625 C 3262.460938 3414.023438 3670.898438 3414.140625 4079.335938 3414.257813 " transform="matrix(0.1,0,0,-0.1,0,394)"/>
<path style="fill:none;stroke-width:57.3507;stroke-linecap:butt;stroke-linejoin:miter;stroke:rgb(0%,68.199158%,93.699646%);stroke-opacity:1;stroke-miterlimit:2.6131;" d="M 1770.546875 525.429688 C 2175.546875 525.3125 2580.546875 525.234375 2985.546875 525.15625 C 2985.78125 1433.945313 2986.015625 2342.773438 2986.289063 3251.5625 C 3307.265625 3251.640625 3628.242188 3251.757813 3949.21875 3251.835938 " transform="matrix(0.1,0,0,-0.1,0,394)"/>
<path style="fill:none;stroke-width:57.3507;stroke-linecap:butt;stroke-linejoin:miter;stroke:rgb(0%,68.199158%,93.699646%);stroke-opacity:1;stroke-miterlimit:2.6131;" d="M 1901.289063 362.734375 C 2306.875 362.65625 2712.421875 362.617188 3118.007813 362.539063 C 3118.164063 1271.445313 3118.359375 2180.351563 3118.515625 3089.257813 C 3352.03125 3089.296875 3585.585938 3089.375 3819.101563 3089.414063 " transform="matrix(0.1,0,0,-0.1,0,394)"/>
<path style="fill:none;stroke-width:57.3507;stroke-linecap:butt;stroke-linejoin:miter;stroke:rgb(0%,68.199158%,93.699646%);stroke-opacity:1;stroke-miterlimit:2.6131;" d="M 2031.953125 200.039063 C 2438.164063 200 2844.335938 199.960938 3250.507813 199.960938 C 3250.585938 1108.945313 3250.664063 2017.929688 3250.742188 2926.914063 C 3396.835938 2926.953125 3542.890625 2926.953125 3689.023438 2926.992188 " transform="matrix(0.1,0,0,-0.1,0,394)"/>
<path style="fill:none;stroke-width:57.3507;stroke-linecap:butt;stroke-linejoin:miter;stroke:rgb(0%,68.199158%,93.699646%);stroke-opacity:1;stroke-miterlimit:2.6131;" d="M 2162.65625 37.34375 L 3382.96875 37.34375 L 3382.96875 2764.609375 L 3558.90625 2764.609375 " transform="matrix(0.1,0,0,-0.1,0,394)"/>
<path style="fill:none;stroke-width:57.3507;stroke-linecap:butt;stroke-linejoin:miter;stroke:rgb(0%,68.199158%,93.699646%);stroke-opacity:1;stroke-miterlimit:2.6131;" d="M 1340.898438 1350.390625 L 1340.898438 2765.234375 L 1139.921875 2765.234375 " transform="matrix(0.1,0,0,-0.1,0,394)"/>
<path style="fill:none;stroke-width:57.3507;stroke-linecap:butt;stroke-linejoin:miter;stroke:rgb(0%,68.199158%,93.699646%);stroke-opacity:1;stroke-miterlimit:2.6131;" d="M 1473.710938 1350.742188 C 1473.710938 1876.445313 1473.710938 2402.148438 1473.710938 2927.851563 C 1318.945313 2927.851563 1164.179688 2927.851563 1009.414063 2927.851563 " transform="matrix(0.1,0,0,-0.1,0,394)"/>
<path style="fill:none;stroke-width:57.3507;stroke-linecap:butt;stroke-linejoin:miter;stroke:rgb(0%,68.199158%,93.699646%);stroke-opacity:1;stroke-miterlimit:2.6131;" d="M 1606.523438 1351.09375 C 1606.523438 1930.898438 1606.523438 2510.664063 1606.523438 3090.46875 C 1363.984375 3090.46875 1121.445313 3090.46875 878.90625 3090.46875 " transform="matrix(0.1,0,0,-0.1,0,394)"/>
<path style="fill:none;stroke-width:57.3507;stroke-linecap:butt;stroke-linejoin:miter;stroke:rgb(0%,68.199158%,93.699646%);stroke-opacity:1;stroke-miterlimit:2.6131;" d="M 1739.335938 1351.445313 C 1739.335938 1985.3125 1739.335938 2619.21875 1739.335938 3253.085938 C 1409.023438 3253.085938 1078.710938 3253.085938 748.398438 3253.085938 " transform="matrix(0.1,0,0,-0.1,0,394)"/>
<path style="fill:none;stroke-width:57.3507;stroke-linecap:butt;stroke-linejoin:miter;stroke:rgb(0%,68.199158%,93.699646%);stroke-opacity:1;stroke-miterlimit:2.6131;" d="M 1872.148438 1351.796875 C 1872.148438 2039.765625 1872.148438 2727.734375 1872.148438 3415.703125 C 1454.0625 3415.703125 1035.976563 3415.703125 617.851563 3415.703125 " transform="matrix(0.1,0,0,-0.1,0,394)"/>
<path style="fill:none;stroke-width:57.3507;stroke-linecap:butt;stroke-linejoin:miter;stroke:rgb(0%,68.199158%,93.699646%);stroke-opacity:1;stroke-miterlimit:2.6131;" d="M 2004.960938 1352.148438 C 2004.960938 2094.21875 2004.960938 2836.25 2004.960938 3578.28125 C 1499.101563 3578.28125 993.203125 3578.28125 487.34375 3578.28125 " transform="matrix(0.1,0,0,-0.1,0,394)"/>
<path style="fill:none;stroke-width:57.3507;stroke-linecap:butt;stroke-linejoin:miter;stroke:rgb(0%,68.199158%,93.699646%);stroke-opacity:1;stroke-miterlimit:2.6131;" d="M 2137.773438 1352.5 C 2137.773438 2148.632813 2137.773438 2944.765625 2137.773438 3740.898438 C 1544.101563 3740.898438 950.46875 3740.898438 356.835938 3740.898438 " transform="matrix(0.1,0,0,-0.1,0,394)"/>
<path style="fill:none;stroke-width:57.3507;stroke-linecap:butt;stroke-linejoin:miter;stroke:rgb(0%,68.199158%,93.699646%);stroke-opacity:1;stroke-miterlimit:2.6131;" d="M 2270.585938 1352.851563 L 2270.585938 3903.515625 L 226.289063 3903.515625 " transform="matrix(0.1,0,0,-0.1,0,394)"/>
<path style="fill:none;stroke-width:57.3507;stroke-linecap:butt;stroke-linejoin:miter;stroke:rgb(0%,68.199158%,93.699646%);stroke-opacity:1;stroke-miterlimit:2.6131;" d="M 3585.507813 5.9375 L 3585.429688 2693.554688 " transform="matrix(0.1,0,0,-0.1,0,394)"/>
<path style="fill:none;stroke-width:57.3507;stroke-linecap:butt;stroke-linejoin:miter;stroke:rgb(0%,68.199158%,93.699646%);stroke-opacity:1;stroke-miterlimit:2.6131;" d="M 3716.09375 5.9375 C 3716.09375 955.585938 3716.09375 1905.195313 3716.054688 2854.804688 " transform="matrix(0.1,0,0,-0.1,0,394)"/>
<path style="fill:none;stroke-width:57.3507;stroke-linecap:butt;stroke-linejoin:miter;stroke:rgb(0%,68.199158%,93.699646%);stroke-opacity:1;stroke-miterlimit:2.6131;" d="M 3846.71875 5.976563 C 3846.71875 1009.335938 3846.71875 2012.695313 3846.71875 3016.054688 " transform="matrix(0.1,0,0,-0.1,0,394)"/>
<path style="fill:none;stroke-width:57.3507;stroke-linecap:butt;stroke-linejoin:miter;stroke:rgb(0%,68.199158%,93.699646%);stroke-opacity:1;stroke-miterlimit:2.6131;" d="M 3977.34375 5.976563 C 3977.34375 1063.085938 3977.34375 2120.195313 3977.34375 3177.304688 " transform="matrix(0.1,0,0,-0.1,0,394)"/>
<path style="fill:none;stroke-width:57.3507;stroke-linecap:butt;stroke-linejoin:miter;stroke:rgb(0%,68.199158%,93.699646%);stroke-opacity:1;stroke-miterlimit:2.6131;" d="M 4107.96875 5.976563 C 4107.96875 1116.835938 4107.96875 2227.695313 4107.96875 3338.59375 " transform="matrix(0.1,0,0,-0.1,0,394)"/>
<path style="fill:none;stroke-width:57.3507;stroke-linecap:butt;stroke-linejoin:miter;stroke:rgb(0%,68.199158%,93.699646%);stroke-opacity:1;stroke-miterlimit:2.6131;" d="M 4238.59375 5.976563 C 4238.59375 1170.585938 4238.59375 2335.195313 4238.59375 3499.84375 " transform="matrix(0.1,0,0,-0.1,0,394)"/>
<path style="fill:none;stroke-width:57.3507;stroke-linecap:butt;stroke-linejoin:miter;stroke:rgb(0%,68.199158%,93.699646%);stroke-opacity:1;stroke-miterlimit:2.6131;" d="M 4369.21875 5.976563 C 4369.21875 1224.335938 4369.21875 2442.695313 4369.21875 3661.09375 " transform="matrix(0.1,0,0,-0.1,0,394)"/>
<path style="fill:none;stroke-width:57.3507;stroke-linecap:butt;stroke-linejoin:miter;stroke:rgb(0%,68.199158%,93.699646%);stroke-opacity:1;stroke-miterlimit:2.6131;" d="M 4499.84375 5.976563 L 4499.84375 3822.34375 " transform="matrix(0.1,0,0,-0.1,0,394)"/>
<path style="fill:none;stroke-width:57.3507;stroke-linecap:butt;stroke-linejoin:miter;stroke:rgb(0%,68.199158%,93.699646%);stroke-opacity:1;stroke-miterlimit:2.6131;" d="M 1085.78125 5.9375 L 1085.78125 2639.726563 " transform="matrix(0.1,0,0,-0.1,0,394)"/>
<path style="fill:none;stroke-width:57.3507;stroke-linecap:butt;stroke-linejoin:miter;stroke:rgb(0%,68.199158%,93.699646%);stroke-opacity:1;stroke-miterlimit:2.6131;" d="M 954.84375 5.9375 C 954.84375 937.617188 954.84375 1869.296875 954.84375 2800.976563 " transform="matrix(0.1,0,0,-0.1,0,394)"/>
<path style="fill:none;stroke-width:57.3507;stroke-linecap:butt;stroke-linejoin:miter;stroke:rgb(0%,68.199158%,93.699646%);stroke-opacity:1;stroke-miterlimit:2.6131;" d="M 823.90625 5.9375 C 823.90625 991.367188 823.90625 1976.796875 823.90625 2962.226563 " transform="matrix(0.1,0,0,-0.1,0,394)"/>
<path style="fill:none;stroke-width:57.3507;stroke-linecap:butt;stroke-linejoin:miter;stroke:rgb(0%,68.199158%,93.699646%);stroke-opacity:1;stroke-miterlimit:2.6131;" d="M 692.96875 5.9375 C 692.96875 1045.117188 692.96875 2084.296875 692.96875 3123.476563 " transform="matrix(0.1,0,0,-0.1,0,394)"/>
<path style="fill:none;stroke-width:57.3507;stroke-linecap:butt;stroke-linejoin:miter;stroke:rgb(0%,68.199158%,93.699646%);stroke-opacity:1;stroke-miterlimit:2.6131;" d="M 562.03125 5.9375 C 562.03125 1098.867188 562.03125 2191.796875 562.03125 3284.726563 " transform="matrix(0.1,0,0,-0.1,0,394)"/>
<path style="fill:none;stroke-width:57.3507;stroke-linecap:butt;stroke-linejoin:miter;stroke:rgb(0%,68.199158%,93.699646%);stroke-opacity:1;stroke-miterlimit:2.6131;" d="M 431.132813 5.9375 C 431.09375 1152.617188 431.09375 2299.296875 431.09375 3445.976563 " transform="matrix(0.1,0,0,-0.1,0,394)"/>
<path style="fill:none;stroke-width:57.3507;stroke-linecap:butt;stroke-linejoin:miter;stroke:rgb(0%,68.199158%,93.699646%);stroke-opacity:1;stroke-miterlimit:2.6131;" d="M 300.195313 5.9375 C 300.195313 1206.367188 300.195313 2406.796875 300.15625 3607.226563 " transform="matrix(0.1,0,0,-0.1,0,394)"/>
<path style="fill:none;stroke-width:57.3507;stroke-linecap:butt;stroke-linejoin:miter;stroke:rgb(0%,68.199158%,93.699646%);stroke-opacity:1;stroke-miterlimit:2.6131;" d="M 169.257813 5.976563 C 169.257813 1260.15625 169.257813 2514.296875 169.21875 3768.476563 " transform="matrix(0.1,0,0,-0.1,0,394)"/>
<path style="fill:none;stroke-width:57.3507;stroke-linecap:butt;stroke-linejoin:miter;stroke:rgb(0%,68.199158%,93.699646%);stroke-opacity:1;stroke-miterlimit:2.6131;" d="M 38.320313 5.9375 L 38.28125 3929.765625 " transform="matrix(0.1,0,0,-0.1,0,394)"/>
</g>
</svg>
